<svg width="188" height="86" viewBox="0 0 188 86" fill="none" xmlns="http://www.w3.org/2000/svg">
<path d="M83 41C83 36.5817 86.5817 33 91 33H180C184.418 33 188 36.5817 188 41V78C188 82.4183 184.418 86 180 86H91C86.5817 86 83 82.4183 83 78V41Z" fill="#748FFC"/>
<path d="M113.281 50.1406L107.094 69H102.109L110.562 46.25H113.734L113.281 50.1406ZM118.422 69L112.219 50.1406L111.719 46.25H114.922L123.422 69H118.422ZM118.141 60.5312V64.2031H106.125V60.5312H118.141ZM129.25 55.3438V75.5H124.75V52.0938H128.922L129.25 55.3438ZM139.953 60.3594V60.6875C139.953 61.9167 139.807 63.0573 139.516 64.1094C139.234 65.1615 138.818 66.0781 138.266 66.8594C137.714 67.6302 137.026 68.2344 136.203 68.6719C135.391 69.099 134.453 69.3125 133.391 69.3125C132.359 69.3125 131.464 69.1042 130.703 68.6875C129.943 68.2708 129.302 67.6875 128.781 66.9375C128.271 66.1771 127.859 65.2969 127.547 64.2969C127.234 63.2969 126.995 62.224 126.828 61.0781V60.2188C126.995 58.9896 127.234 57.8646 127.547 56.8438C127.859 55.8125 128.271 54.9219 128.781 54.1719C129.302 53.4115 129.938 52.8229 130.688 52.4062C131.448 51.9896 132.339 51.7812 133.359 51.7812C134.432 51.7812 135.375 51.9844 136.188 52.3906C137.01 52.7969 137.698 53.3802 138.25 54.1406C138.812 54.901 139.234 55.8073 139.516 56.8594C139.807 57.9115 139.953 59.0781 139.953 60.3594ZM135.438 60.6875V60.3594C135.438 59.6406 135.375 58.9792 135.25 58.375C135.135 57.7604 134.948 57.224 134.688 56.7656C134.438 56.3073 134.104 55.9531 133.688 55.7031C133.281 55.4427 132.786 55.3125 132.203 55.3125C131.589 55.3125 131.062 55.4115 130.625 55.6094C130.198 55.8073 129.849 56.0938 129.578 56.4688C129.307 56.8438 129.104 57.2917 128.969 57.8125C128.833 58.3333 128.75 58.9219 128.719 59.5781V61.75C128.771 62.5208 128.917 63.2135 129.156 63.8281C129.396 64.4323 129.766 64.9115 130.266 65.2656C130.766 65.6198 131.422 65.7969 132.234 65.7969C132.828 65.7969 133.328 65.6667 133.734 65.4062C134.141 65.1354 134.469 64.7656 134.719 64.2969C134.979 63.8281 135.161 63.2865 135.266 62.6719C135.38 62.0573 135.438 61.3958 135.438 60.6875ZM147.25 55.3438V75.5H142.75V52.0938H146.922L147.25 55.3438ZM157.953 60.3594V60.6875C157.953 61.9167 157.807 63.0573 157.516 64.1094C157.234 65.1615 156.818 66.0781 156.266 66.8594C155.714 67.6302 155.026 68.2344 154.203 68.6719C153.391 69.099 152.453 69.3125 151.391 69.3125C150.359 69.3125 149.464 69.1042 148.703 68.6875C147.943 68.2708 147.302 67.6875 146.781 66.9375C146.271 66.1771 145.859 65.2969 145.547 64.2969C145.234 63.2969 144.995 62.224 144.828 61.0781V60.2188C144.995 58.9896 145.234 57.8646 145.547 56.8438C145.859 55.8125 146.271 54.9219 146.781 54.1719C147.302 53.4115 147.938 52.8229 148.688 52.4062C149.448 51.9896 150.339 51.7812 151.359 51.7812C152.432 51.7812 153.375 51.9844 154.188 52.3906C155.01 52.7969 155.698 53.3802 156.25 54.1406C156.812 54.901 157.234 55.8073 157.516 56.8594C157.807 57.9115 157.953 59.0781 157.953 60.3594ZM153.438 60.6875V60.3594C153.438 59.6406 153.375 58.9792 153.25 58.375C153.135 57.7604 152.948 57.224 152.688 56.7656C152.438 56.3073 152.104 55.9531 151.688 55.7031C151.281 55.4427 150.786 55.3125 150.203 55.3125C149.589 55.3125 149.062 55.4115 148.625 55.6094C148.198 55.8073 147.849 56.0938 147.578 56.4688C147.307 56.8438 147.104 57.2917 146.969 57.8125C146.833 58.3333 146.75 58.9219 146.719 59.5781V61.75C146.771 62.5208 146.917 63.2135 147.156 63.8281C147.396 64.4323 147.766 64.9115 148.266 65.2656C148.766 65.6198 149.422 65.7969 150.234 65.7969C150.828 65.7969 151.328 65.6667 151.734 65.4062C152.141 65.1354 152.469 64.7656 152.719 64.2969C152.979 63.8281 153.161 63.2865 153.266 62.6719C153.38 62.0573 153.438 61.3958 153.438 60.6875Z" fill="white"/>
<path d="M0 8C0 3.58172 3.58172 0 8 0H97C101.418 0 105 3.58172 105 8V45C105 49.4183 101.418 53 97 53H8C3.58172 53 0 49.4183 0 45V8Z" fill="white"/>
<path d="M19.0156 39H14.0625L14.0938 35.3438H19.0156C20.2448 35.3438 21.2812 35.0677 22.125 34.5156C22.9688 33.9531 23.6042 33.1354 24.0312 32.0625C24.4688 30.9896 24.6875 29.6927 24.6875 28.1719V27.0625C24.6875 25.8958 24.5625 24.8698 24.3125 23.9844C24.0729 23.099 23.7135 22.3542 23.2344 21.75C22.7552 21.1458 22.1667 20.6927 21.4688 20.3906C20.7708 20.0781 19.9688 19.9219 19.0625 19.9219H13.9688V16.25H19.0625C20.5833 16.25 21.974 16.5104 23.2344 17.0312C24.5052 17.5417 25.6042 18.276 26.5312 19.2344C27.4583 20.1927 28.1719 21.3385 28.6719 22.6719C29.1823 23.9948 29.4375 25.4688 29.4375 27.0938V28.1719C29.4375 29.7865 29.1823 31.2604 28.6719 32.5938C28.1719 33.9271 27.4583 35.0729 26.5312 36.0312C25.6146 36.9792 24.5156 37.7135 23.2344 38.2344C21.9635 38.7448 20.5573 39 19.0156 39ZM16.7188 16.25V39H12.0312V16.25H16.7188ZM40.3438 39.3125C39.0312 39.3125 37.8542 39.1042 36.8125 38.6875C35.7708 38.2604 34.8854 37.6719 34.1562 36.9219C33.4375 36.1719 32.8854 35.3021 32.5 34.3125C32.1146 33.3125 31.9219 32.25 31.9219 31.125V30.5C31.9219 29.2188 32.1042 28.0469 32.4688 26.9844C32.8333 25.9219 33.3542 25 34.0312 24.2188C34.7188 23.4375 35.5521 22.8385 36.5312 22.4219C37.5104 21.9948 38.6146 21.7812 39.8438 21.7812C41.0417 21.7812 42.1042 21.9792 43.0312 22.375C43.9583 22.7708 44.7344 23.3333 45.3594 24.0625C45.9948 24.7917 46.474 25.6667 46.7969 26.6875C47.1198 27.6979 47.2812 28.8229 47.2812 30.0625V31.9375H33.8438V28.9375H42.8594V28.5938C42.8594 27.9688 42.7448 27.4115 42.5156 26.9219C42.2969 26.4219 41.9635 26.026 41.5156 25.7344C41.0677 25.4427 40.4948 25.2969 39.7969 25.2969C39.2031 25.2969 38.6927 25.4271 38.2656 25.6875C37.8385 25.9479 37.4896 26.3125 37.2188 26.7812C36.9583 27.25 36.7604 27.8021 36.625 28.4375C36.5 29.0625 36.4375 29.75 36.4375 30.5V31.125C36.4375 31.8021 36.5312 32.4271 36.7188 33C36.9167 33.5729 37.1927 34.0677 37.5469 34.4844C37.9115 34.901 38.349 35.224 38.8594 35.4531C39.3802 35.6823 39.9688 35.7969 40.625 35.7969C41.4375 35.7969 42.1927 35.6406 42.8906 35.3281C43.599 35.0052 44.2083 34.5208 44.7188 33.875L46.9062 36.25C46.5521 36.7604 46.0677 37.25 45.4531 37.7188C44.849 38.1875 44.1198 38.5729 43.2656 38.875C42.4115 39.1667 41.4375 39.3125 40.3438 39.3125ZM54.3438 25.5938V39H49.8281V22.0938H54.0625L54.3438 25.5938ZM53.7188 29.9531H52.4688C52.4688 28.776 52.6094 27.6927 52.8906 26.7031C53.1823 25.7031 53.6042 24.8385 54.1562 24.1094C54.7188 23.3698 55.4115 22.7969 56.2344 22.3906C57.0573 21.9844 58.0104 21.7812 59.0938 21.7812C59.8438 21.7812 60.5312 21.8958 61.1562 22.125C61.7812 22.3438 62.3177 22.6927 62.7656 23.1719C63.224 23.6406 63.5781 24.2552 63.8281 25.0156C64.0781 25.7656 64.2031 26.6667 64.2031 27.7188V39H59.7031V28.2188C59.7031 27.4479 59.599 26.8542 59.3906 26.4375C59.1823 26.0208 58.8854 25.7292 58.5 25.5625C58.125 25.3958 57.6719 25.3125 57.1406 25.3125C56.5573 25.3125 56.0469 25.4323 55.6094 25.6719C55.1823 25.9115 54.8281 26.2448 54.5469 26.6719C54.2656 27.0885 54.0573 27.5781 53.9219 28.1406C53.7865 28.7031 53.7188 29.3073 53.7188 29.9531ZM63.7812 29.4375L62.1719 29.6406C62.1719 28.5365 62.3073 27.5104 62.5781 26.5625C62.8594 25.6146 63.2708 24.7812 63.8125 24.0625C64.3646 23.3438 65.0469 22.7865 65.8594 22.3906C66.6719 21.9844 67.6094 21.7812 68.6719 21.7812C69.4844 21.7812 70.224 21.901 70.8906 22.1406C71.5573 22.3698 72.125 22.7396 72.5938 23.25C73.0729 23.75 73.4375 24.4062 73.6875 25.2188C73.9479 26.0312 74.0781 27.026 74.0781 28.2031V39H69.5625V28.2031C69.5625 27.4219 69.4583 26.8281 69.25 26.4219C69.0521 26.0052 68.7604 25.7188 68.375 25.5625C68 25.3958 67.5521 25.3125 67.0312 25.3125C66.4896 25.3125 66.0156 25.4219 65.6094 25.6406C65.2031 25.849 64.8646 26.1406 64.5938 26.5156C64.3229 26.8906 64.1198 27.3281 63.9844 27.8281C63.849 28.3177 63.7812 28.8542 63.7812 29.4375ZM76.8438 30.7188V30.3906C76.8438 29.151 77.0208 28.0104 77.375 26.9688C77.7292 25.9167 78.2448 25.0052 78.9219 24.2344C79.599 23.4635 80.4323 22.8646 81.4219 22.4375C82.4115 22 83.5469 21.7812 84.8281 21.7812C86.1094 21.7812 87.25 22 88.25 22.4375C89.25 22.8646 90.0885 23.4635 90.7656 24.2344C91.4531 25.0052 91.974 25.9167 92.3281 26.9688C92.6823 28.0104 92.8594 29.151 92.8594 30.3906V30.7188C92.8594 31.9479 92.6823 33.0885 92.3281 34.1406C91.974 35.1823 91.4531 36.0938 90.7656 36.875C90.0885 37.6458 89.2552 38.2448 88.2656 38.6719C87.276 39.099 86.1406 39.3125 84.8594 39.3125C83.5781 39.3125 82.4375 39.099 81.4375 38.6719C80.4479 38.2448 79.6094 37.6458 78.9219 36.875C78.2448 36.0938 77.7292 35.1823 77.375 34.1406C77.0208 33.0885 76.8438 31.9479 76.8438 30.7188ZM81.3438 30.3906V30.7188C81.3438 31.4271 81.4062 32.0885 81.5312 32.7031C81.6562 33.3177 81.8542 33.8594 82.125 34.3281C82.4062 34.7865 82.7708 35.1458 83.2188 35.4062C83.6667 35.6667 84.2135 35.7969 84.8594 35.7969C85.4844 35.7969 86.0208 35.6667 86.4688 35.4062C86.9167 35.1458 87.276 34.7865 87.5469 34.3281C87.8177 33.8594 88.0156 33.3177 88.1406 32.7031C88.276 32.0885 88.3438 31.4271 88.3438 30.7188V30.3906C88.3438 29.7031 88.276 29.0573 88.1406 28.4531C88.0156 27.8385 87.8125 27.2969 87.5312 26.8281C87.2604 26.349 86.901 25.974 86.4531 25.7031C86.0052 25.4323 85.4635 25.2969 84.8281 25.2969C84.1927 25.2969 83.651 25.4323 83.2031 25.7031C82.7656 25.974 82.4062 26.349 82.125 26.8281C81.8542 27.2969 81.6562 27.8385 81.5312 28.4531C81.4062 29.0573 81.3438 29.7031 81.3438 30.3906Z" fill="#343A40"/>
</svg>
