<svg width="96" height="96" viewBox="0 0 96 96" fill="none" xmlns="http://www.w3.org/2000/svg">
<rect width="96" height="96" rx="48" fill="#383838"/>
<path d="M48.3333 48.3333C45.2625 48.3333 42.6337 47.2399 40.4469 45.0531C38.2601 42.8663 37.1667 40.2375 37.1667 37.1667C37.1667 34.0958 38.2601 31.467 40.4469 29.2802C42.6337 27.0934 45.2625 26 48.3333 26C51.4042 26 54.033 27.0934 56.2198 29.2802C58.4066 31.467 59.5 34.0958 59.5 37.1667C59.5 40.2375 58.4066 42.8663 56.2198 45.0531C54.033 47.2399 51.4042 48.3333 48.3333 48.3333ZM26 70.6667V62.85C26 61.2681 26.4076 59.8136 27.2228 58.4866C28.0379 57.1597 29.1192 56.1481 30.4667 55.4521C33.3514 54.0097 36.2826 52.9275 39.2604 52.2054C42.2382 51.4833 45.2625 51.1231 48.3333 51.125C51.4042 51.125 54.4285 51.4861 57.4062 52.2082C60.384 52.9303 63.3153 54.0116 66.2 55.4521C67.5493 56.15 68.6315 57.1624 69.4467 58.4894C70.2619 59.8164 70.6685 61.2699 70.6667 62.85V70.6667H26ZM31.5833 65.0833H65.0833V62.85C65.0833 62.3382 64.9549 61.8729 64.6981 61.4542C64.4412 61.0354 64.1044 60.7097 63.6875 60.4771C61.175 59.2208 58.6392 58.2791 56.0802 57.6519C53.5212 57.0247 50.9389 56.7102 48.3333 56.7083C45.7278 56.7083 43.1455 57.0229 40.5865 57.6519C38.0274 58.281 35.4917 59.2227 32.9792 60.4771C32.5604 60.7097 32.2226 61.0354 31.9658 61.4542C31.709 61.8729 31.5815 62.3382 31.5833 62.85V65.0833ZM48.3333 42.75C49.8688 42.75 51.1836 42.2028 52.278 41.1085C53.3723 40.0142 53.9185 38.7002 53.9167 37.1667C53.9167 35.6313 53.3695 34.3164 52.2752 33.222C51.1808 32.1277 49.8669 31.5815 48.3333 31.5833C46.7979 31.5833 45.483 32.1305 44.3887 33.2248C43.2944 34.3192 42.7481 35.6331 42.75 37.1667C42.75 38.7021 43.2972 40.017 44.3915 41.1113C45.4858 42.2056 46.7998 42.7519 48.3333 42.75Z" fill="black"/>
</svg>

