<svg width="49" height="43" viewBox="0 0 49 43" fill="none" xmlns="http://www.w3.org/2000/svg">
<path d="M24.5 42.875C23.7875 42.875 23.1043 42.746 22.4504 42.4879C21.7965 42.2298 21.213 41.8443 20.7 41.3313L4.78751 25.3594C3.40209 23.974 2.38242 22.3907 1.72851 20.6094C1.07459 18.8282 0.748422 16.9677 0.750006 15.0282C0.750006 10.9511 2.07605 7.44795 4.72813 4.51878C7.38021 1.58961 10.6854 0.125031 14.6438 0.125031C16.5438 0.125031 18.3353 0.501072 20.0184 1.25316C21.7015 2.00524 23.1953 3.0542 24.5 4.40003C25.7667 3.0542 27.2415 2.00524 28.9246 1.25316C30.6077 0.501072 32.3985 0.125031 34.2969 0.125031C38.2552 0.125031 41.5707 1.58961 44.2434 4.51878C46.916 7.44795 48.2516 10.9313 48.25 14.9688C48.25 16.9084 47.9135 18.7688 47.2406 20.55C46.5677 22.3313 45.5583 23.9146 44.2125 25.3L28.2406 41.3313C27.726 41.8459 27.1521 42.2322 26.5188 42.4903C25.8854 42.7484 25.2125 42.8766 24.5 42.875ZM26.875 12C27.2708 12 27.6469 12.099 28.0031 12.2969C28.3594 12.4948 28.6365 12.7521 28.8344 13.0688L32.8719 19.125H42.7281C43.0052 18.4521 43.2126 17.7689 43.3504 17.0754C43.4881 16.3819 43.5578 15.6797 43.5594 14.9688C43.4802 12.2375 42.5698 9.89182 40.8281 7.93166C39.0865 5.97149 36.9094 4.9922 34.2969 4.99378C33.0698 4.99378 31.8918 5.23128 30.7629 5.70628C29.634 6.18128 28.6547 6.87399 27.825 7.78441L26.2219 9.50628C26.024 9.74378 25.7667 9.9322 25.45 10.0715C25.1333 10.2109 24.8167 10.2797 24.5 10.2782C24.1833 10.2782 23.8667 10.2093 23.55 10.0715C23.2333 9.93378 22.9563 9.74536 22.7188 9.50628L21.1156 7.78441C20.2844 6.87399 19.3146 6.16149 18.2063 5.6469C17.0979 5.13232 15.9104 4.87503 14.6438 4.87503C12.0313 4.87503 9.85417 5.87491 8.11251 7.87466C6.37084 9.87441 5.50001 12.2391 5.50001 14.9688C5.50001 15.6813 5.55938 16.3843 5.67813 17.0778C5.79688 17.7713 5.9948 18.4537 6.27188 19.125H17.375C17.7708 19.125 18.1469 19.224 18.5031 19.4219C18.8594 19.6198 19.1365 19.8771 19.3344 20.1938L21.4125 23.2813L24.6188 13.6625C24.7771 13.1875 25.0637 12.7917 25.4785 12.475C25.8933 12.1584 26.3588 12 26.875 12ZM27.5875 19.7188L24.3813 29.3375C24.2229 29.8125 23.926 30.2084 23.4906 30.525C23.0552 30.8417 22.5802 31 22.0656 31C21.6698 31 21.2938 30.9011 20.9375 30.7032C20.5813 30.5052 20.3042 30.2479 20.1063 29.9313L16.0688 23.875H10.0125L24.0844 37.9469C24.1635 38.0261 24.2332 38.076 24.2934 38.0965C24.3535 38.1171 24.4224 38.1266 24.5 38.125C24.5792 38.125 24.6488 38.1147 24.709 38.0942C24.7692 38.0736 24.838 38.0245 24.9156 37.9469L38.9281 23.875H31.625C31.2292 23.875 30.8531 23.7761 30.4969 23.5782C30.1406 23.3802 29.8438 23.1229 29.6063 22.8063L27.5875 19.7188Z" fill="black"/>
</svg>
